<svg width="674" height="127" viewBox="0 0 674 127" fill="none" xmlns="http://www.w3.org/2000/svg">
<path d="M71.9062 59.918H58.0273V78.4453C60.9492 81.1458 62.7201 82.8945 63.3398 83.6914C64.4466 85.1081 65.5755 87.2995 66.7266 90.2656H57.8945C57.8945 85.4401 56.5221 81.6771 53.7773 78.9766C51.0768 76.276 47.3138 74.9258 42.4883 74.9258C37.4414 74.9258 32.7266 76.3203 28.3438 79.1094C24.138 81.7656 20.7513 85.3516 18.1836 89.8672C15.7487 94.1615 14.5312 98.3229 14.5312 102.352C14.5312 107.089 16.2357 110.697 19.6445 113.176C22.6549 115.389 26.6172 116.496 31.5312 116.496C39.7214 116.496 45.4323 114.238 48.6641 109.723H62.8086C61.6133 114.504 57.2083 118.533 49.5938 121.809C46.1849 123.27 43.0195 124 40.0977 124C34.3867 124 28.6315 122.384 22.832 119.152C17.2982 116.098 12.7383 112.18 9.15234 107.398C5.56641 102.573 3.77344 97.8138 3.77344 93.1211C3.77344 89.5794 5.34505 85.5729 8.48828 81.1016C15.0846 71.7161 23.1198 67.0234 32.5938 67.0234C38.8359 67.0234 43.7721 68.3294 47.4023 70.9414V59.918H0.519531V51.9492H71.9062V59.918ZM140.836 59.918H122.707V73C124.788 73.487 126.293 74.0846 127.223 74.793V82.6289C121.954 80.8138 116.465 79.9062 110.754 79.9062C106.637 79.9062 102.652 80.5924 98.8008 81.9648C93.6654 83.7799 91.0755 86.3698 91.0312 89.7344C90.9427 93.276 95.9674 95.0469 106.105 95.0469C106.327 95.0469 107.766 94.9805 110.422 94.8477L114.406 94.6484V100.758C108.385 100.935 104.622 101.09 103.117 101.223C92.5365 102.152 87.2461 105.207 87.2461 110.387C87.2461 113.264 89.0833 115.522 92.7578 117.16C95.6354 118.444 98.7344 119.086 102.055 119.086C116.443 119.086 128.086 112.711 136.984 99.9609V116.762C129.37 121.587 120.361 124 109.957 124C98.5794 124 88.7513 121.366 80.4727 116.098C76.444 113.53 74.4297 110.586 74.4297 107.266C74.4297 104.034 75.8464 101.223 78.6797 98.832C80.4062 97.3711 83.2617 95.6888 87.2461 93.7852L82.8633 91.2617C80.2513 89.7565 78.9453 87.7422 78.9453 85.2188C78.9453 79.7292 83.0846 75.7891 91.3633 73.3984C97.6497 71.5833 104.711 70.6758 112.547 70.6758V59.918H69.9805V51.9492H140.836V59.918ZM210.695 59.918H139.309V51.9492H210.695V59.918ZM196.418 89.0703C196.418 78.4453 191.393 73.1328 181.344 73.1328C173.906 73.1328 167.686 77.0286 162.684 84.8203C158.257 91.7266 156.043 99.0755 156.043 106.867V126.191L145.152 120.48V70.543H156.574V78.4453L162.484 73.9961C167.708 70.056 173.22 68.0859 179.02 68.0859C186.9 68.0859 193.43 71.1406 198.609 77.25C203.479 83.0052 205.914 89.8893 205.914 97.9023C205.914 107.952 201.664 117.603 193.164 126.855L180.348 118.82C184.332 114.88 187.719 111.25 190.508 107.93C194.448 103.237 196.418 96.9505 196.418 89.0703ZM268.469 59.918H234.867V113.375C234.867 114.88 235.354 116.341 236.328 117.758C237.346 119.307 238.586 120.082 240.047 120.082C246.643 120.082 249.941 113.264 249.941 99.6289L263.289 107.266C258.198 118.555 250.318 124.177 239.648 124.133C233.451 124.089 228.625 121.255 225.172 115.633C223.667 113.198 222.914 110.763 222.914 108.328V59.918H209.035V51.9492H222.914V29.6367L234.867 37.9375V51.9492H268.469V59.918ZM334.078 59.918H266.941V51.9492H334.078V59.918ZM328.566 83.7578C328.566 86.3698 326.995 89.3138 323.852 92.5898C321.195 95.3789 318.406 97.4596 315.484 98.832L305.523 87.543C308.534 87.2773 311.389 86.1706 314.09 84.2227C317.189 82.0091 318.738 79.4857 318.738 76.6523C318.738 75.1471 317.764 73.8633 315.816 72.8008C314.134 71.8268 312.474 71.3398 310.836 71.3398C307.427 71.3398 303.775 72.9779 299.879 76.2539C291.954 82.8945 287.992 90.2435 287.992 98.3008V126.457L275.242 119.816V70.6758H288.125V75.7227C290.029 73.819 293.969 71.8268 299.945 69.7461C302.867 68.7279 305.878 68.2188 308.977 68.2188C315.396 68.2188 320.841 70.6758 325.312 75.5898C327.482 77.9805 328.566 80.7031 328.566 83.7578ZM397.828 59.918H353.602V70.543C353.779 70.543 353.956 70.6315 354.133 70.8086C354.31 70.9857 354.465 71.0742 354.598 71.0742C354.243 71.0742 354.044 71.0521 354 71.0078C354 70.7865 357.298 70.0781 363.895 68.8828C366.329 68.4401 368.742 68.2188 371.133 68.2188C381.094 68.2188 387.491 71.0078 390.324 76.5859C392.228 80.3047 393.18 87.8086 393.18 99.0977V124.664C392.25 124.31 388.73 122.871 382.621 120.348C382.621 118.931 382.333 118.023 381.758 117.625C379.411 118.997 377.486 120.038 375.98 120.746C371.199 123.004 365.643 124.133 359.312 124.133C350.591 124.133 343.862 121.388 339.125 115.898C336.823 113.242 335.672 110.276 335.672 107C335.672 103.326 337.487 99.6732 341.117 96.043C348.156 89.0039 356.9 85.4844 367.348 85.4844C373.678 85.4844 378.77 86.9453 382.621 89.8672V83.7578C380.673 81.2786 378.77 79.6185 376.91 78.7773C375.095 77.9362 372.594 77.5599 369.406 77.6484C362.279 77.7812 355.749 79.0872 349.816 81.5664C347.16 82.6732 344.57 83.6693 342.047 84.5547V79.6406C342.622 79.1536 343.464 78.4232 344.57 77.4492C344.747 77.2279 344.858 77.0951 344.902 77.0508V59.918H331.289V51.9492H397.828V59.918ZM382.621 101.953C382.621 100.005 380.297 98.2565 375.648 96.707C371.797 95.4232 368.587 94.7812 366.02 94.7812C356.678 94.7812 349.197 98.1458 343.574 104.875C341.316 107.576 340.188 109.789 340.188 111.516C341.117 114.747 344.77 116.363 351.145 116.363C359.379 116.363 366.905 114.305 373.723 110.188C379.655 106.602 382.621 103.857 382.621 101.953ZM426.98 59.918H419.941V51.9492H426.98V59.918ZM404.27 59.918H396.699V51.9492H404.27V59.918ZM417.75 43.9141V125.66C417.307 125.527 416.732 125.284 416.023 124.93L412.57 123.137C408.63 121.1 406.549 120.082 406.328 120.082V44.0469C406.328 39.3984 405.421 34.4622 403.605 29.2383C401.082 21.9336 397.164 15.293 391.852 9.31641L387.668 4.60156H401.812C409.161 11.9505 413.987 20.9596 416.289 31.6289C417.263 36.1445 417.75 40.2396 417.75 43.9141ZM448.363 44.9766C448.186 45.1536 447.677 45.2422 446.836 45.2422C446.128 45.2422 445.508 45.1536 444.977 44.9766L440.66 36.1445C438.889 33.3555 436.477 31.474 433.422 30.5C430.411 29.4818 428.552 28.375 427.844 27.1797C427.18 25.1432 425.896 22.0221 423.992 17.8164V16.2891H426.582C429.991 17.3516 432.758 18.3477 434.883 19.2773C438.38 20.8268 440.727 22.6198 441.922 24.6562C442.586 25.763 443.604 28.5964 444.977 33.1562C446.26 37.4505 447.345 40.4388 448.23 42.1211C448.319 42.918 448.363 43.8698 448.363 44.9766ZM452.281 59.918H425.254V51.9492H452.281V59.918ZM444.711 125.527L433.555 119.352V68.0859H444.711V125.527ZM529.312 59.918H471.008V67.6875H522.273L486.48 109.457C488.207 111.184 492.435 113.109 499.164 115.234C502.396 116.253 505.65 116.762 508.926 116.762C512.733 116.762 515.566 116.208 517.426 115.102C519.595 113.773 521.167 111.383 522.141 107.93C522.583 109.346 522.805 110.63 522.805 111.781C522.805 117.138 520.458 121.233 515.766 124.066C513.419 125.483 510.608 126.191 507.332 126.191C499.939 126.191 492.966 124.398 486.414 120.812L480.105 117.359C476.874 122.052 471.805 124.354 464.898 124.266C462.419 124.221 460.117 123.557 457.992 122.273C455.513 120.812 454.273 118.931 454.273 116.629C454.273 112.91 456.465 109.922 460.848 107.664C464.389 105.849 468.219 104.941 472.336 104.941C473.62 104.941 474.904 105.074 476.188 105.34L501.156 75.1914C485.44 75.1914 470.809 77.4049 457.262 81.832L462.707 68.8164V59.918H450.887V51.8164H529.312V59.918ZM597.844 59.918H579.715V73C581.796 73.487 583.301 74.0846 584.23 74.793V82.6289C578.962 80.8138 573.473 79.9062 567.762 79.9062C563.645 79.9062 559.66 80.5924 555.809 81.9648C550.673 83.7799 548.083 86.3698 548.039 89.7344C547.951 93.276 552.975 95.0469 563.113 95.0469C563.335 95.0469 564.773 94.9805 567.43 94.8477L571.414 94.6484V100.758C565.393 100.935 561.63 101.09 560.125 101.223C549.544 102.152 544.254 105.207 544.254 110.387C544.254 113.264 546.091 115.522 549.766 117.16C552.643 118.444 555.742 119.086 559.062 119.086C573.451 119.086 585.094 112.711 593.992 99.9609V116.762C586.378 121.587 577.368 124 566.965 124C555.587 124 545.759 121.366 537.48 116.098C533.452 113.53 531.438 110.586 531.438 107.266C531.438 104.034 532.854 101.223 535.688 98.832C537.414 97.3711 540.27 95.6888 544.254 93.7852L539.871 91.2617C537.259 89.7565 535.953 87.7422 535.953 85.2188C535.953 79.7292 540.092 75.7891 548.371 73.3984C554.658 71.5833 561.719 70.6758 569.555 70.6758V59.918H526.988V51.9492H597.844V59.918ZM673.414 59.918H664.715L664.582 124.797L652.496 119.617V110.121C645.324 119.374 638.285 124 631.379 124C626.996 124 622.215 122.163 617.035 118.488C612.608 115.345 608.934 111.671 606.012 107.465C602.559 102.507 600.854 97.681 600.898 92.9883C600.943 88.694 603.311 83.7135 608.004 78.0469C613.272 71.6719 619.625 68.4844 627.062 68.4844C631.799 68.4844 636.559 70.4987 641.34 74.5273C642.801 75.7227 646.52 79.5742 652.496 86.082V59.918H595.652V51.9492H652.496C652.496 42.7852 651.721 35.6133 650.172 30.4336C647.87 22.7305 642.734 13.5664 634.766 2.94141C634.589 2.85286 634.5 2.4987 634.5 1.87891C634.5 1.34766 634.633 0.99349 634.898 0.816406H647.582C659.004 13.4336 664.715 30.4779 664.715 51.9492H673.414V59.918ZM649.309 90.1328C649.309 86.6797 647.427 83.7135 643.664 81.2344C640.299 79.0208 636.802 77.9141 633.172 77.9141C630.516 77.9141 627.195 79.1536 623.211 81.6328C614.534 87.0339 610.195 93.4089 610.195 100.758C610.195 104.786 611.28 108.284 613.449 111.25C615.84 114.57 618.961 116.23 622.812 116.23C626.797 116.23 631.047 114.415 635.562 110.785C638.706 108.262 641.628 105.163 644.328 101.488C647.648 96.9727 649.309 93.1875 649.309 90.1328Z" fill="#FFBC00"/>
</svg>
