<svg width="556" height="149" viewBox="0 0 556 149" fill="none" xmlns="http://www.w3.org/2000/svg">
<path d="M85.7109 67.1958H69.0767V89.4014C72.5786 92.638 74.701 94.7339 75.4438 95.689C76.7703 97.3869 78.1234 100.013 79.5029 103.568H68.9175C68.9175 97.7848 67.2726 93.2747 63.9829 90.0381C60.7463 86.8014 56.2362 85.1831 50.4526 85.1831C44.4038 85.1831 38.7529 86.8545 33.5 90.1973C28.4593 93.3809 24.4002 97.6787 21.3228 103.091C18.4045 108.238 16.9453 113.225 16.9453 118.054C16.9453 123.731 18.9881 128.056 23.0737 131.027C26.6818 133.68 31.4307 135.006 37.3203 135.006C47.1364 135.006 53.9811 132.3 57.8545 126.888H74.8071C73.3745 132.619 68.0951 137.447 58.9688 141.374C54.8831 143.125 51.0894 144 47.5874 144C40.7427 144 33.8449 142.063 26.894 138.19C20.2616 134.529 14.7964 129.833 10.4985 124.103C6.20068 118.319 4.05176 112.615 4.05176 106.991C4.05176 102.746 5.93538 97.944 9.70264 92.585C17.6086 81.3363 27.2389 75.7119 38.5938 75.7119C46.0752 75.7119 51.9914 77.2772 56.3423 80.4077V67.1958H0.151855V57.645H85.7109V67.1958ZM173.658 67.1958H107.041V118.213C107.041 121.609 107.757 125.111 109.19 128.719C112.108 136.094 116.937 139.782 123.675 139.782C132.749 139.782 139.646 135.988 144.369 128.4C148.03 122.564 149.86 117.072 149.86 111.925V80.2485H166.017V148.059C164.744 147.316 162.356 146.175 158.854 144.637L149.701 140.578V134.21C143.44 138.774 138.081 141.665 133.624 142.886C130.918 143.629 127.708 144 123.994 144C112.214 144 103.008 138.827 96.376 128.48C93.3516 123.758 91.8394 118.611 91.8394 113.04V67.1958H82.209V57.645H173.658V67.1958ZM208.2 67.1958H199.763V57.645H208.2V67.1958ZM180.98 67.1958H171.907V57.645H180.98V67.1958ZM197.137 48.0146V145.99C196.606 145.831 195.916 145.539 195.067 145.114L190.929 142.965C186.206 140.525 183.713 139.304 183.447 139.304V48.1738C183.447 42.6025 182.36 36.6864 180.184 30.4253C177.16 21.6704 172.464 13.7114 166.097 6.54834L161.083 0.897461H178.035C186.843 9.7054 192.627 20.5031 195.386 33.2905C196.553 38.7026 197.137 43.6107 197.137 48.0146ZM277.363 67.1958H237.091V131.266C237.091 133.07 237.674 134.821 238.842 136.519C240.062 138.376 241.548 139.304 243.299 139.304C251.205 139.304 255.158 131.133 255.158 114.791L271.155 123.943C265.053 137.474 255.609 144.212 242.821 144.159C235.393 144.106 229.609 140.71 225.471 133.972C223.667 131.053 222.765 128.135 222.765 125.217V67.1958H206.13V57.645H222.765V30.9028L237.091 40.8516V57.645H277.363V67.1958ZM365.469 67.1958H298.853V118.213C298.853 121.609 299.569 125.111 301.001 128.719C303.92 136.094 308.748 139.782 315.487 139.782C324.56 139.782 331.458 135.988 336.18 128.4C339.841 122.564 341.672 117.072 341.672 111.925V80.2485H357.829V148.059C356.555 147.316 354.167 146.175 350.666 144.637L341.513 140.578V134.21C335.252 138.774 329.893 141.665 325.436 142.886C322.729 143.629 319.519 144 315.805 144C304.026 144 294.82 138.827 288.188 128.48C285.163 123.758 283.651 118.611 283.651 113.04V67.1958H274.021V57.645H365.469V67.1958ZM444.502 67.1958H364.037V57.645H444.502V67.1958ZM437.896 95.7686C437.896 98.8991 436.012 102.428 432.245 106.354C429.062 109.697 425.719 112.191 422.217 113.835L410.278 100.305C413.886 99.9868 417.309 98.6603 420.545 96.3257C424.26 93.6727 426.117 90.6483 426.117 87.2524C426.117 85.4484 424.949 83.9097 422.615 82.6362C420.598 81.4689 418.609 80.8853 416.646 80.8853C412.56 80.8853 408.182 82.8485 403.513 86.7749C394.015 94.7339 389.267 103.542 389.267 113.199V146.945L373.985 138.986V80.0894H389.426V86.1382C391.707 83.8566 396.43 81.4689 403.593 78.9751C407.095 77.7547 410.703 77.1445 414.417 77.1445C422.111 77.1445 428.637 80.0894 433.996 85.979C436.596 88.8442 437.896 92.1074 437.896 95.7686ZM520.908 67.1958H467.901V79.9302C468.114 79.9302 468.326 80.0363 468.538 80.2485C468.75 80.4608 468.936 80.5669 469.095 80.5669C468.671 80.5669 468.432 80.5404 468.379 80.4873C468.379 80.222 472.332 79.373 480.238 77.9404C483.156 77.4098 486.048 77.1445 488.913 77.1445C500.852 77.1445 508.519 80.4873 511.915 87.1729C514.196 91.6299 515.337 100.624 515.337 114.154V144.796C514.223 144.371 510.004 142.647 502.682 139.623C502.682 137.925 502.337 136.837 501.647 136.359C498.835 138.004 496.527 139.251 494.723 140.1C488.993 142.806 482.334 144.159 474.746 144.159C464.293 144.159 456.228 140.869 450.551 134.29C447.792 131.106 446.412 127.551 446.412 123.625C446.412 119.221 448.588 114.844 452.938 110.493C461.375 102.056 471.854 97.8379 484.376 97.8379C491.964 97.8379 498.066 99.5889 502.682 103.091V95.7686C500.347 92.7972 498.066 90.8075 495.837 89.7993C493.662 88.7912 490.664 88.3402 486.844 88.4463C478.301 88.6055 470.475 90.1707 463.365 93.1421C460.181 94.4686 457.077 95.6624 454.053 96.7236V90.834C454.743 90.2503 455.751 89.3748 457.077 88.2075C457.289 87.9422 457.422 87.783 457.475 87.73V67.1958H441.159V57.645H520.908V67.1958ZM502.682 117.576C502.682 115.242 499.896 113.146 494.325 111.289C489.709 109.75 485.862 108.98 482.785 108.98C471.589 108.98 462.622 113.013 455.883 121.078C453.177 124.315 451.824 126.968 451.824 129.037C452.938 132.91 457.316 134.847 464.957 134.847C474.826 134.847 483.846 132.38 492.017 127.445C499.127 123.147 502.682 119.858 502.682 117.576ZM555.848 67.1958H547.412V57.645H555.848V67.1958ZM528.628 67.1958H519.555V57.645H528.628V67.1958ZM544.785 48.0146V145.99C544.255 145.831 543.565 145.539 542.716 145.114L538.577 142.965C533.855 140.525 531.361 139.304 531.096 139.304V48.1738C531.096 42.6025 530.008 36.6864 527.833 30.4253C524.808 21.6704 520.112 13.7114 513.745 6.54834L508.731 0.897461H525.684C534.492 9.7054 540.275 20.5031 543.034 33.2905C544.201 38.7026 544.785 43.6107 544.785 48.0146Z" fill="#FFBC00"/>
</svg>
