<svg width="503" height="135" viewBox="0 0 503 135" fill="none" xmlns="http://www.w3.org/2000/svg">
<path d="M85.8164 37.1958H64.0884V52.875C66.5822 53.4587 68.3862 54.175 69.5005 55.0239V64.4155C63.1864 62.2401 56.6069 61.1523 49.7622 61.1523C44.8276 61.1523 40.0522 61.9748 35.436 63.6196C29.2811 65.7951 26.1771 68.8991 26.124 72.9316C26.0179 77.1764 32.0402 79.2988 44.1909 79.2988C44.4562 79.2988 46.1807 79.2192 49.3643 79.0601L54.1396 78.8213V86.1436C46.9235 86.3558 42.4134 86.5415 40.6094 86.7007C27.9281 87.8149 21.5874 91.4761 21.5874 97.6841C21.5874 101.133 23.7894 103.839 28.1934 105.802C31.6423 107.341 35.3564 108.11 39.3359 108.11C56.5804 108.11 70.5352 100.47 81.2002 85.1885V105.325C72.0739 111.108 61.2762 114 48.8071 114C35.1707 114 23.3914 110.843 13.4692 104.529C8.64079 101.451 6.22656 97.9229 6.22656 93.9434C6.22656 90.07 7.92448 86.7007 11.3203 83.8354C13.3896 82.0845 16.812 80.0682 21.5874 77.7866L16.3345 74.7622C13.2039 72.9582 11.6387 70.5439 11.6387 67.5195C11.6387 60.9401 16.5998 56.2178 26.522 53.3525C34.0565 51.1771 42.5195 50.0894 51.9111 50.0894V37.1958H0.894043V27.645H85.8164V37.1958ZM183.553 27.645L183.394 37.1958H175.275V52.3975C174.32 54.3076 172.092 58.3402 168.59 64.4951L140.335 114.159C135.613 114.159 129.432 110.418 121.791 102.937C113.408 94.7658 109.216 85.6925 109.216 75.7173C109.216 70.6235 110.861 65.8747 114.15 61.4707C115.636 59.4544 116.379 57.9422 116.379 56.9341C116.379 55.077 114.814 54.1484 111.683 54.1484C109.348 54.1484 107.093 55.1035 104.918 57.0137C104.122 57.7035 102.398 59.5871 99.7446 62.6646L89.4775 53.3525C92.9795 50.3812 96.4019 48.5506 99.7446 47.8608C101.389 47.4894 103.512 47.3037 106.112 47.3037C120.491 47.1445 127.681 54.8117 127.681 70.3052C127.681 72.3745 127.442 75.4785 126.964 79.6172C126.54 83.7559 126.328 86.8599 126.328 88.9292C126.328 97.3127 127.813 101.876 130.785 102.619C132.43 102.619 134.366 100.602 136.595 96.5698L160.87 52.7158V37.1958H83.5083V27.645H183.553ZM269.987 37.1958H248.259V52.875C250.753 53.4587 252.557 54.175 253.671 55.0239V64.4155C247.357 62.2401 240.778 61.1523 233.933 61.1523C228.999 61.1523 224.223 61.9748 219.607 63.6196C213.452 65.7951 210.348 68.8991 210.295 72.9316C210.189 77.1764 216.211 79.2988 228.362 79.2988C228.627 79.2988 230.352 79.2192 233.535 79.0601L238.311 78.8213V86.1436C231.094 86.3558 226.584 86.5415 224.78 86.7007C212.099 87.8149 205.758 91.4761 205.758 97.6841C205.758 101.133 207.96 103.839 212.364 105.802C215.813 107.341 219.527 108.11 223.507 108.11C240.751 108.11 254.706 100.47 265.371 85.1885V105.325C256.245 111.108 245.447 114 232.978 114C219.342 114 207.562 110.843 197.64 104.529C192.812 101.451 190.397 97.9229 190.397 93.9434C190.397 90.07 192.095 86.7007 195.491 83.8354C197.561 82.0845 200.983 80.0682 205.758 77.7866L200.505 74.7622C197.375 72.9582 195.81 70.5439 195.81 67.5195C195.81 60.9401 200.771 56.2178 210.693 53.3525C218.227 51.1771 226.69 50.0894 236.082 50.0894V37.1958H185.065V27.645H269.987V37.1958ZM353.716 37.1958H268.157V27.645H353.716V37.1958ZM336.604 72.1357C336.604 59.4014 330.582 53.0342 318.537 53.0342C309.623 53.0342 302.168 57.7035 296.172 67.042C290.866 75.3193 288.213 84.1273 288.213 93.4658V116.626L275.161 109.782V49.9302H288.85V59.4014L295.934 54.0688C302.195 49.3465 308.801 46.9854 315.751 46.9854C325.196 46.9854 333.022 50.6465 339.23 57.9688C345.067 64.8665 347.985 73.1174 347.985 82.7212C347.985 94.7658 342.892 106.333 332.704 117.422L317.343 107.792C322.119 103.07 326.178 98.7188 329.521 94.7393C334.243 89.1149 336.604 81.5804 336.604 72.1357ZM422.959 37.1958H382.687V101.266C382.687 103.07 383.27 104.821 384.438 106.519C385.658 108.376 387.144 109.304 388.895 109.304C396.8 109.304 400.753 101.133 400.753 84.7905L416.751 93.9434C410.649 107.474 401.204 114.212 388.417 114.159C380.989 114.106 375.205 110.71 371.066 103.972C369.262 101.053 368.36 98.1351 368.36 95.2168V37.1958H351.726V27.645H368.36V0.902832L382.687 10.8516V27.645H422.959V37.1958ZM502.788 37.1958H494.112V67.3604C490.982 65.5033 486.472 63.9115 480.582 62.585C475.064 61.3115 470.288 60.6748 466.256 60.6748C456.546 60.6748 448.401 62.3993 441.822 65.8481C438.108 67.8114 436.25 70.3848 436.25 73.5684C436.25 77.8132 438.479 79.9355 442.936 79.9355C445.642 79.9355 449.171 79.1396 453.521 77.5479C456.334 76.5397 459.942 75.2663 464.346 73.7275C466.203 73.0908 469.493 72.7725 474.215 72.7725C483.394 72.7725 490.239 75.6112 494.749 81.2886C496.924 83.9946 498.012 87.1782 498.012 90.8394C498.012 99.2759 492.706 105.908 482.094 110.737C477.69 112.753 473.499 113.894 469.519 114.159C473.339 117.979 476.974 119.89 480.423 119.89C481.537 119.89 482.731 119.73 484.004 119.412L492.043 132.544C490.398 133.977 487.029 134.693 481.935 134.693C477.796 134.693 474.294 133.287 471.429 130.475C469.89 128.936 467.715 125.726 464.903 120.845C462.515 116.653 460.525 114.531 458.934 114.478C449.118 114.212 441.556 112.435 436.25 109.145C432.908 107.076 431.236 104.237 431.236 100.629C431.236 96.1719 433.889 93.9434 439.195 93.9434C441.159 93.9434 445.244 95.4821 451.452 98.5596C457.713 101.584 462.86 103.096 466.893 103.096C474.958 103.096 482.519 101.186 489.576 97.3657C493.025 95.5086 494.749 93.2271 494.749 90.521C494.749 86.4884 491.565 84.4722 485.198 84.4722C483.235 84.4722 476.894 85.9048 466.176 88.77C459.862 90.4679 455.989 91.3169 454.556 91.3169C446.12 91.3169 439.169 87.3374 433.704 79.3784C431.051 75.5581 429.724 71.446 429.724 67.042C429.671 58.0749 435.799 52.026 448.109 48.8955C453.15 47.6221 457.899 46.9854 462.356 46.9854C467.45 46.9854 474.666 48.2323 484.004 50.7261V37.1958H420.651V27.645H502.788V37.1958Z" fill="#FFBC00"/>
</svg>
