<svg width="700" height="149" viewBox="0 0 700 149" fill="none" xmlns="http://www.w3.org/2000/svg">
<path d="M103.443 68.1958H63.1704V132.266C63.1704 134.07 63.7541 135.821 64.9214 137.519C66.1418 139.376 67.6274 140.304 69.3784 140.304C77.2843 140.304 81.2373 132.133 81.2373 115.791L97.2349 124.943C91.133 138.474 81.6883 145.212 68.9009 145.159C61.4725 145.106 55.689 141.71 51.5503 134.972C49.7463 132.053 48.8442 129.135 48.8442 126.217V68.1958H32.21V58.645H48.8442V31.9028L63.1704 41.8516V58.645H103.443V68.1958ZM186.216 68.1958H164.488V83.875C166.982 84.4587 168.786 85.175 169.9 86.0239V95.4155C163.586 93.2401 157.007 92.1523 150.162 92.1523C145.228 92.1523 140.452 92.9748 135.836 94.6196C129.681 96.7951 126.577 99.8991 126.524 103.932C126.418 108.176 132.44 110.299 144.591 110.299C144.856 110.299 146.581 110.219 149.764 110.06L154.54 109.821V117.144C147.323 117.356 142.813 117.542 141.009 117.701C128.328 118.815 121.987 122.476 121.987 128.684C121.987 132.133 124.189 134.839 128.593 136.802C132.042 138.341 135.756 139.11 139.736 139.11C156.98 139.11 170.935 131.47 181.6 116.188V136.325C172.474 142.108 161.676 145 149.207 145C135.571 145 123.791 141.843 113.869 135.529C109.041 132.451 106.626 128.923 106.626 124.943C106.626 121.07 108.324 117.701 111.72 114.835C113.79 113.084 117.212 111.068 121.987 108.787L116.734 105.762C113.604 103.958 112.039 101.544 112.039 98.5195C112.039 91.9401 117 87.2178 126.922 84.3525C134.456 82.1771 142.919 81.0894 152.311 81.0894V68.1958H101.294V58.645H186.216V68.1958ZM269.467 68.1958H252.833V90.4014C256.335 93.638 258.457 95.7339 259.2 96.689C260.527 98.3869 261.88 101.013 263.259 104.568H252.674C252.674 98.7848 251.029 94.2747 247.739 91.0381C244.503 87.8014 239.993 86.1831 234.209 86.1831C228.16 86.1831 222.509 87.8545 217.256 91.1973C212.216 94.3809 208.157 98.6787 205.079 104.091C202.161 109.238 200.702 114.225 200.702 119.054C200.702 124.731 202.744 129.056 206.83 132.027C210.438 134.68 215.187 136.006 221.077 136.006C230.893 136.006 237.737 133.3 241.611 127.888H258.563C257.131 133.619 251.851 138.447 242.725 142.374C238.639 144.125 234.846 145 231.344 145C224.499 145 217.601 143.063 210.65 139.19C204.018 135.529 198.553 130.833 194.255 125.103C189.957 119.319 187.808 113.615 187.808 107.991C187.808 103.746 189.692 98.944 193.459 93.585C201.365 82.3363 210.995 76.7119 222.35 76.7119C229.832 76.7119 235.748 78.2772 240.099 81.4077V68.1958H183.908V58.645H269.467V68.1958ZM355.663 68.1958H291.434V92.1523C297.218 85.8382 302.577 81.7791 307.511 79.9751C310.27 78.967 313.374 78.4629 316.823 78.4629C329.77 78.4629 339.453 84.8301 345.874 97.5645C348.686 103.136 350.092 108.627 350.092 114.04C350.092 123.909 346.033 132.823 337.915 140.782C335.208 143.435 333.192 145.265 331.866 146.273L318.813 138.474C322.103 135.025 325.843 130.78 330.035 125.739C334.757 120.062 337.145 112.899 337.198 104.25C337.251 99.1032 336.084 94.8053 333.696 91.3564C330.99 87.3239 327.17 85.3607 322.235 85.4668C317.672 85.5729 312.791 87.2974 307.591 90.6401C302.922 93.6115 299.048 97.1665 295.971 101.305C292.628 105.762 290.957 110.06 290.957 114.199V145.796L276.073 137.837V68.1958H267.318V58.645H276.073C276.073 43.0454 272.014 29.7274 263.896 18.6909C259.014 12.0584 254.504 7.38916 250.366 4.68311L266.443 4.52393C275.357 9.40544 282.44 19.9378 287.693 36.1211C290.187 43.8148 291.434 51.3228 291.434 58.645H355.663V68.1958ZM439.63 68.1958H354.071V58.645H439.63V68.1958ZM422.519 103.136C422.519 90.4014 416.496 84.0342 404.452 84.0342C395.538 84.0342 388.083 88.7035 382.087 98.042C376.781 106.319 374.128 115.127 374.128 124.466V147.626L361.075 140.782V80.9302H374.765V90.4014L381.848 85.0688C388.109 80.3465 394.715 77.9854 401.666 77.9854C411.111 77.9854 418.937 81.6465 425.145 88.9688C430.982 95.8665 433.9 104.117 433.9 113.721C433.9 125.766 428.806 137.333 418.619 148.422L403.258 138.792C408.033 134.07 412.092 129.719 415.435 125.739C420.157 120.115 422.519 112.58 422.519 103.136ZM465.338 50.2881C465.126 50.5003 464.515 50.6064 463.507 50.6064C462.658 50.6064 461.916 50.5003 461.279 50.2881L456.105 39.7026C453.983 36.3599 451.091 34.1048 447.43 32.9375C443.822 31.7171 441.594 30.3906 440.745 28.958C439.949 26.5173 438.41 22.7765 436.128 17.7358V15.9053H439.232C443.318 17.1787 446.634 18.3726 449.181 19.4868C453.373 21.3439 456.185 23.4928 457.618 25.9336C458.414 27.2601 459.634 30.6559 461.279 36.1211C462.818 41.2679 464.118 44.8494 465.179 46.8657C465.285 47.8208 465.338 48.9616 465.338 50.2881ZM470.034 68.1958H437.641V58.645H470.034V68.1958ZM460.96 146.831L447.589 139.429V77.9854H460.96V146.831ZM553.762 68.1958H537.128V90.4014C540.63 93.638 542.752 95.7339 543.495 96.689C544.822 98.3869 546.175 101.013 547.554 104.568H536.969C536.969 98.7848 535.324 94.2747 532.034 91.0381C528.798 87.8014 524.287 86.1831 518.504 86.1831C512.455 86.1831 506.804 87.8545 501.551 91.1973C496.511 94.3809 492.451 98.6787 489.374 104.091C486.456 109.238 484.997 114.225 484.997 119.054C484.997 124.731 487.039 129.056 491.125 132.027C494.733 134.68 499.482 136.006 505.372 136.006C515.188 136.006 522.032 133.3 525.906 127.888H542.858C541.426 133.619 536.146 138.447 527.02 142.374C522.934 144.125 519.141 145 515.639 145C508.794 145 501.896 143.063 494.945 139.19C488.313 135.529 482.848 130.833 478.55 125.103C474.252 119.319 472.103 113.615 472.103 107.991C472.103 103.746 473.987 98.944 477.754 93.585C485.66 82.3363 495.29 76.7119 506.645 76.7119C514.126 76.7119 520.043 78.2772 524.394 81.4077V68.1958H468.203V58.645H553.762V68.1958ZM630.328 68.1958H577.321V80.9302C577.533 80.9302 577.745 81.0363 577.958 81.2485C578.17 81.4608 578.355 81.5669 578.515 81.5669C578.09 81.5669 577.851 81.5404 577.798 81.4873C577.798 81.222 581.751 80.373 589.657 78.9404C592.576 78.4098 595.467 78.1445 598.333 78.1445C610.271 78.1445 617.938 81.4873 621.334 88.1729C623.616 92.6299 624.756 101.624 624.756 115.154V145.796C623.642 145.371 619.424 143.647 612.102 140.623C612.102 138.925 611.757 137.837 611.067 137.359C608.255 139.004 605.947 140.251 604.143 141.1C598.412 143.806 591.753 145.159 584.166 145.159C573.713 145.159 565.648 141.869 559.97 135.29C557.211 132.106 555.832 128.551 555.832 124.625C555.832 120.221 558.007 115.844 562.358 111.493C570.794 103.056 581.274 98.8379 593.796 98.8379C601.383 98.8379 607.485 100.589 612.102 104.091V96.7686C609.767 93.7972 607.485 91.8075 605.257 90.7993C603.081 89.7912 600.083 89.3402 596.263 89.4463C587.721 89.6055 579.894 91.1707 572.784 94.1421C569.601 95.4686 566.497 96.6624 563.472 97.7236V91.834C564.162 91.2503 565.17 90.3748 566.497 89.2075C566.709 88.9422 566.841 88.783 566.895 88.73V68.1958H550.579V58.645H630.328V68.1958ZM612.102 118.576C612.102 116.242 609.316 114.146 603.745 112.289C599.128 110.75 595.282 109.98 592.204 109.98C581.008 109.98 572.041 114.013 565.303 122.078C562.597 125.315 561.244 127.968 561.244 130.037C562.358 133.91 566.735 135.847 574.376 135.847C584.245 135.847 593.265 133.38 601.437 128.445C608.547 124.147 612.102 120.858 612.102 118.576ZM665.268 68.1958H656.831V58.645H665.268V68.1958ZM638.048 68.1958H628.975V58.645H638.048V68.1958ZM654.205 49.0146V146.99C653.674 146.831 652.984 146.539 652.135 146.114L647.997 143.965C643.274 141.525 640.78 140.304 640.515 140.304V49.1738C640.515 43.6025 639.427 37.6864 637.252 31.4253C634.228 22.6704 629.532 14.7114 623.165 7.54834L618.15 1.89746H635.103C643.911 10.7054 649.694 21.5031 652.454 34.2905C653.621 39.7026 654.205 44.6107 654.205 49.0146Z" fill="#FFBC00"/>
</svg>
