<svg width="470" height="5032" viewBox="0 0 470 5032" fill="none" xmlns="http://www.w3.org/2000/svg">
<path d="M411.053 40.4799C443.448 33.758 459.03 15.0581 470 -26H76V5031.5H199V423.5H222.712C231.721 423.5 237.514 413.908 233.81 405.695C205.318 342.52 213.977 300.357 272 227C247.79 153.116 260.395 122.643 342.5 98.5C339.906 90.8802 338.492 84.4546 338.475 78.7404C338.381 48.6033 381.545 46.6029 411.053 40.4799Z" fill="#FF902C" fill-opacity="0.65"/>
<path d="M297.053 40.4799C329.448 33.758 345.03 15.0581 356 -26H-38V5029H85V423.5H108.712C117.721 423.5 123.514 413.908 119.81 405.695C91.3176 342.52 99.9771 300.357 158 227C133.79 153.116 146.395 122.643 228.5 98.5C225.906 90.8802 224.492 84.4546 224.475 78.7404C224.381 48.6033 267.545 46.6029 297.053 40.4799Z" fill="#FF902C"/>
</svg>
