<svg width="508" height="5032" viewBox="0 0 508 5032" fill="none" xmlns="http://www.w3.org/2000/svg">
<path d="M58.9467 40.4799C26.5518 33.758 10.9695 15.0581 0 -26H394V5031.5H271V423.5H247.288C238.279 423.5 232.486 413.908 236.19 405.695C264.682 342.52 256.023 300.357 198 227C222.21 153.116 209.605 122.643 127.5 98.5C130.094 90.8802 131.508 84.4546 131.525 78.7404C131.619 48.6033 88.4554 46.6029 58.9467 40.4799Z" fill="#FF902C" fill-opacity="0.65"/>
<path d="M172.954 40.4799C140.56 33.758 124.977 15.0581 114.008 -26H508.008V5029H385.008V423.5H361.296C352.287 423.5 346.494 413.908 350.198 405.695C378.69 342.52 370.031 300.357 312.008 227C336.218 153.116 323.613 122.643 241.508 98.5C244.102 90.8802 245.515 84.4546 245.533 78.7404C245.627 48.6033 202.463 46.6029 172.954 40.4799Z" fill="#FF902C"/>
</svg>
